HIERARCHY
ROOT root
{
	OFFSET	0	13.1	24.9
	CHANNELS 6  Xposition Yposition Zposition Xrotation Yrotation Zrotation
	JOINT spine_1
	{
		OFFSET	0	9.99999	0
		CHANNELS 3  Xrotation Yrotation Zrotation
		JOINT spine_2
		{
			OFFSET	0	112	-10
			CHANNELS 3  Xrotation Yrotation Zrotation
			JOINT spine_3
			{
				OFFSET	0	206.5	19.3
				CHANNELS 3  Xrotation Yrotation Zrotation
				JOINT spine_4
				{
					OFFSET	0	110.4	14.6
					CHANNELS 3  Xrotation Yrotation Zrotation
					JOINT neck_1
					{
						OFFSET	0	71.8	-50.3
						CHANNELS 3  Xrotation Yrotation Zrotation
						JOINT neck_2
						{
							OFFSET	0	86.2	-25.8
							CHANNELS 3  Xrotation Yrotation Zrotation
							JOINT head_ee
							{
								OFFSET	0	179.8	-8.7
								CHANNELS 3  Xrotation Yrotation Zrotation
								End Site
								{
									OFFSET	1	0	0
								}
							}
						}
					}
					JOINT left_clavicle
					{
						OFFSET	-43.2	22.4	-70.8
						CHANNELS 3  Xrotation Yrotation Zrotation
						JOINT left_shoulder
						{
							OFFSET	-93.9	-5.79999	48.7
							CHANNELS 3  Xrotation Yrotation Zrotation
							JOINT left_elbow
							{
								OFFSET	-291.4	-30.8	15.2
								CHANNELS 3  Xrotation Yrotation Zrotation
								JOINT left_lowarm_twist
								{
									OFFSET	-110.7	-3.89999	13.6
									CHANNELS 3  Xrotation Yrotation Zrotation
									JOINT left_hand
									{
										OFFSET	-110.7	-3.89999	13.6
										CHANNELS 3  Xrotation Yrotation Zrotation
										JOINT left_ee
										{
											OFFSET	-80.8	-5.10001	12.1
											CHANNELS 3  Xrotation Yrotation Zrotation
											End Site
											{
												OFFSET	1	0	0
											}
										}
									}
								}
							}
						}
					}
					JOINT right_clavicle
					{
						OFFSET	43.2	22.4	-70.8
						CHANNELS 3  Xrotation Yrotation Zrotation
						JOINT right_shoulder
						{
							OFFSET	93.9	-5.79999	48.7
							CHANNELS 3  Xrotation Yrotation Zrotation
							JOINT right_elbow
							{
								OFFSET	291.4	-30.8	15.2
								CHANNELS 3  Xrotation Yrotation Zrotation
								JOINT right_lowarm_twist
								{
									OFFSET	110.7	-3.89999	13.6
									CHANNELS 3  Xrotation Yrotation Zrotation
									JOINT right_hand
									{
										OFFSET	110.7	-3.89999	13.6
										CHANNELS 3  Xrotation Yrotation Zrotation
										JOINT right_ee
										{
											OFFSET	80.8	-5.10001	12.1
											CHANNELS 3  Xrotation Yrotation Zrotation
											End Site
											{
												OFFSET	1	0	0
											}
										}
									}
								}
							}
						}
					}
				}
			}
		}
	}
	JOINT left_hip
	{
		OFFSET	-82.8	-127.5	0.300001
		CHANNELS 3  Xrotation Yrotation Zrotation
		JOINT left_knee
		{
			OFFSET	-28.2	-396.7	2.2
			CHANNELS 3  Xrotation Yrotation Zrotation
			JOINT left_ankle
			{
				OFFSET	-11.7	-411.3	35.4
				CHANNELS 3  Xrotation Yrotation Zrotation
				JOINT left_toes
				{
					OFFSET	0	-60	-88.6
					CHANNELS 3  Xrotation Yrotation Zrotation
					JOINT left_foot_ee
					{
						OFFSET	-22.5	-16.5	-42.2
						CHANNELS 3  Xrotation Yrotation Zrotation
						End Site
						{
							OFFSET	1	0	0
						}
					}
				}
			}
		}
	}
	JOINT right_hip
	{
		OFFSET	82.8	-127.5	0.300001
		CHANNELS 3  Xrotation Yrotation Zrotation
		JOINT right_knee
		{
			OFFSET	28.2	-396.7	2.2
			CHANNELS 3  Xrotation Yrotation Zrotation
			JOINT right_ankle
			{
				OFFSET	11.7	-411.3	35.4
				CHANNELS 3  Xrotation Yrotation Zrotation
				JOINT right_toes
				{
					OFFSET	0	-60	-88.6
					CHANNELS 3  Xrotation Yrotation Zrotation
					JOINT right_foot_ee
					{
						OFFSET	22.5	-16.5	-42.2
						CHANNELS 3  Xrotation Yrotation Zrotation
						End Site
						{
							OFFSET	1	0	0
						}
					}
				}
			}
		}
	}
}
MOTION
Frames: 5
Frame Time: 0.02
2845.95 705.196 -1522.45 13.506 64.0418 -13.9897 -2.55437 0.469271 0.703473 -2.55419 0.423557 0.731907 -2.54831 0.224266 0.815345 -2.54906 0.350217 0.769698 1.76425 19.5097 1.82849 2.80792 32.9603 3.36284 -0.0 0.0 -0.0 6.9373 17.4602 12.8524 11.0076 1.79337 60.697 1.27762 -32.328 0.370326 -6.68838 -0.283114 0.8063 -0.819843 28.7556 6.78399 -0.0 0.0 -0.0 12.9222 20.0766 -26.0589 -15.1062 22.738 -65.5315 0.31894 8.97835 -0.0250405 -8.58449 0.380346 -1.02844 6.02224 17.8475 -34.3327 0.0 0.0 0.0 -2.9796 26.7201 1.30372 -17.2043 0.318443 2.61106 26.3752 -18.1375 -3.83637 -9.56918 0.0 0.0 -0.0 0.0 -0.0 15.3283 31.3612 -8.57234 -65.7702 2.85421 -9.12908 38.2774 -13.5846 4.75623 -40.1833 0.0 0.0 0.0 0.0 0.0 
2835.19 709.235 -1514.55 11.2722 63.2689 -11.6069 -2.30351 0.299015 0.575824 -2.30336 0.261768 0.593683 -2.30037 0.105542 0.640188 -2.30088 0.205321 0.615487 0.888057 19.9314 2.47853 1.85537 33.4241 4.3135 -0.0 0.0 -0.0 6.66247 17.3957 12.417 12.0758 -0.340125 60.8831 1.34194 -33.6126 0.405333 -6.43383 -0.270623 0.776239 -0.727773 28.765 7.28688 -0.0 0.0 -0.0 12.8769 20.4562 -25.9258 -15.9734 22.6459 -64.832 0.289259 8.15461 -0.0206192 -8.42053 0.371647 -1.00936 6.06088 18.2179 -34.3926 0.0 0.0 0.0 -4.06107 26.9166 2.78035 -17.2196 0.318376 2.6134 28.2221 -18.001 -4.05289 -10.4545 0.0 0.0 -0.0 0.0 -0.0 19.4939 31.9852 -10.8739 -63.1724 2.55211 -8.86541 37.8308 -14.6982 4.72889 -40.1675 0.0 0.0 0.0 0.0 0.0 
2820.75 716.347 -1507.75 10.2369 62.7481 -11.0283 -2.15014 -0.0779449 0.66207 -2.1499 -0.119915 0.655769 -2.15111 -0.278015 0.605906 -2.15158 -0.178837 0.642208 0.848341 20.0316 2.34387 1.83296 33.7258 4.17871 -0.0 0.0 -0.0 6.5148 18.1313 12.1365 12.8368 -1.4138 60.8977 1.42624 -35.2398 0.452996 -6.36044 -0.267047 0.767562 -0.587921 27.3023 7.47922 -0.0 0.0 -0.0 12.9453 20.412 -26.0882 -17.9829 24.6641 -63.6442 0.313549 8.82899 -0.0242061 -8.72074 0.387616 -1.04428 6.11217 17.9846 -34.9538 0.0 0.0 0.0 -8.78696 31.9537 6.4542 -7.47648 0.234855 1.12257 23.319 -21.0027 -3.54095 -11.8481 0.0 0.0 -0.0 0.0 -0.0 24.6443 31.869 -14.3994 -58.9576 2.08848 -8.4096 36.2623 -19.3953 4.6561 -40.1593 0.0 0.0 0.0 0.0 0.0 
2804.17 710.457 -1504.64 10.4324 62.2057 -11.1968 -2.15166 -0.148415 0.622651 -2.15147 -0.187735 0.611946 -2.15338 -0.332948 0.54669 -2.15371 -0.242432 0.59241 -1.70414 21.0859 2.6356 -0.914647 36.1163 5.26453 -0.0 0.0 -0.0 6.21729 16.3472 11.7592 13.9274 -3.39179 60.5479 1.40973 -34.9261 0.443506 -5.91583 -0.245619 0.714902 -0.323066 25.311 8.19779 -0.0 0.0 -0.0 12.8428 20.3804 -25.8521 -19.8708 27.9019 -62.3102 0.263276 7.43071 -0.0170962 -12.998 0.634815 -1.53234 5.90186 16.5903 -34.196 0.0 0.0 0.0 -10.206 28.6372 7.60833 -10.7398 0.291069 1.6201 29.2998 -15.8378 -4.11174 -12.7966 0.0 0.0 -0.0 0.0 -0.0 29.2461 31.8014 -17.0805 -57.3918 1.92503 -8.23187 39.3583 -14.943 4.87379 -40.1827 0.0 0.0 0.0 0.0 0.0 
2787.4 705.807 -1503.14 8.96541 60.8971 -9.47808 -2.13801 -0.21829 0.658745 -2.13781 -0.259764 0.64352 -2.14067 -0.410422 0.5596 -2.14097 -0.316894 0.617393 -0.0697435 20.5393 2.8697 0.846741 34.4751 5.017 -0.0 0.0 -0.0 5.78969 17.1518 11.0385 15.1149 -4.34015 59.8242 1.54889 -37.4955 0.525739 -5.82734 -0.241404 0.704401 -0.512226 28.5655 8.38239 -0.0 0.0 -0.0 12.6147 20.3751 -25.3237 -17.5778 23.2512 -63.6734 0.225013 6.36037 -0.0125021 -9.24514 0.415948 -1.10508 6.21378 19.0188 -35.0603 0.0 0.0 0.0 -9.162 27.2706 6.30494 -14.6016 0.320873 2.21177 28.7565 -17.7826 -4.10835 -10.8732 0.0 0.0 -0.0 0.0 -0.0 31.209 29.3077 -16.5348 -56.853 1.86992 -8.16969 37.0835 -15.3566 4.66708 -40.2729 0.0 0.0 0.0 0.0 0.0 
